<svg width="33" height="33" viewBox="0 0 33 33" fill="none" xmlns="http://www.w3.org/2000/svg">
<g clip-path="url(#clip0)">
<path d="M24.1685 11.5083C24.594 10.5958 24.6396 9.55173 24.2953 8.60566C23.9509 7.65959 23.2449 6.88906 22.3324 6.46357C21.4199 6.03808 20.3758 5.9925 19.4297 6.33684C18.4837 6.68118 17.7131 7.38724 17.2877 8.2997L11.5122 20.6853C11.2569 21.2327 11.2295 21.8592 11.4361 22.4269C11.6427 22.9945 12.0664 23.4568 12.6139 23.7121C13.1613 23.9674 13.7878 23.9948 14.3554 23.7882C14.9231 23.5815 15.3854 23.1579 15.6407 22.6104L20.1327 12.9772C20.2178 12.7947 20.227 12.5859 20.1581 12.3967C20.0892 12.2075 19.948 12.0534 19.7655 11.9683C19.583 11.8832 19.3742 11.8741 19.185 11.9429C18.9958 12.0118 18.8417 12.153 18.7566 12.3355L14.2645 21.9687C14.1794 22.1512 14.0253 22.2924 13.8361 22.3613C13.6469 22.4302 13.4381 22.421 13.2556 22.3359C13.0731 22.2508 12.9319 22.0967 12.863 21.9075C12.7941 21.7183 12.8032 21.5095 12.8883 21.327L18.6638 8.94142C18.7902 8.67034 18.9688 8.42681 19.1893 8.22474C19.4099 8.02266 19.668 7.86601 19.9491 7.7637C20.2302 7.6614 20.5286 7.61547 20.8274 7.62851C21.1263 7.64156 21.4196 7.71334 21.6907 7.83974C21.9618 7.96615 22.2053 8.14472 22.4074 8.36524C22.6094 8.58576 22.7661 8.84393 22.8684 9.125C22.9707 9.40607 23.0166 9.70453 23.0036 10.0034C22.9905 10.3022 22.9188 10.5955 22.7924 10.8666L17.0169 23.2522C16.5914 24.1646 15.8208 24.8707 14.8748 25.215C13.9287 25.5594 12.8846 25.5138 11.9721 25.0883C11.0597 24.6628 10.3536 23.8923 10.0093 22.9462C9.66492 22.0001 9.71051 20.956 10.136 20.0436L14.628 10.4103C14.7131 10.2278 14.7223 10.019 14.6534 9.8298C14.5845 9.64059 14.4433 9.48648 14.2608 9.40138C14.0783 9.31629 13.8695 9.30717 13.6803 9.37604C13.4911 9.44491 13.337 9.58612 13.2519 9.76861L8.75982 19.4018C8.16414 20.6793 8.10032 22.141 8.5824 23.4655C9.06448 24.79 10.053 25.8688 11.3304 26.4645C12.6079 27.0601 14.0696 27.124 15.3941 26.6419C16.7186 26.1598 17.7974 25.1713 18.393 23.8939L24.1685 11.5083Z" fill="#DADADA"/>
</g>
<defs>
<clipPath id="clip0">
<rect width="24.295" height="24.295" fill="white" transform="matrix(-0.906308 -0.422618 -0.422618 0.906308 32.2864 10.2676)"/>
</clipPath>
</defs>
</svg>
