<svg width="7" height="30" viewBox="0 0 7 30" fill="none" xmlns="http://www.w3.org/2000/svg">
<path d="M0.391527 15.3896C0.391527 17.0676 1.75181 18.4279 3.4298 18.4279C5.1078 18.4279 6.46808 17.0676 6.46808 15.3896C6.46808 13.7116 5.1078 12.3513 3.4298 12.3513C1.75181 12.3513 0.391527 13.7116 0.391527 15.3896Z" fill="black"/>
<path d="M0.391527 3.84418C0.391527 5.52218 1.75181 6.88246 3.4298 6.88246C5.1078 6.88246 6.46808 5.52218 6.46808 3.84418C6.46808 2.16619 5.1078 0.805908 3.4298 0.805908C1.75181 0.805908 0.391527 2.16619 0.391527 3.84418Z" fill="black"/>
<path d="M0.391527 26.935C0.391527 28.613 1.75181 29.9733 3.4298 29.9733C5.1078 29.9733 6.46808 28.613 6.46808 26.935C6.46808 25.257 5.1078 23.8967 3.4298 23.8967C1.75181 23.8967 0.391527 25.257 0.391527 26.935Z" fill="black"/>
</svg>
