<svg width="22" height="21" viewBox="0 0 22 21" fill="none" xmlns="http://www.w3.org/2000/svg">
<g clip-path="url(#clip0)">
<path d="M10.5687 20.8721C7.79705 20.8721 5.1389 19.7726 3.17905 17.8154C1.2192 15.8582 0.118164 13.2038 0.118164 10.4359C0.118164 7.66808 1.2192 5.0136 3.17905 3.05644C5.1389 1.09928 7.79705 -0.000244141 10.5687 -0.000244141C13.3404 -0.000244141 15.9985 1.09928 17.9583 3.05644C19.9182 5.0136 21.0192 7.66808 21.0192 10.4359C21.0192 13.2038 19.9182 15.8582 17.9583 17.8154C15.9985 19.7726 13.3404 20.8721 10.5687 20.8721ZM10.5017 19.9885C12.395 20.0027 14.2499 19.4554 15.8315 18.4161C17.4132 17.3768 18.6504 15.8922 19.3865 14.1502C20.1226 12.4082 20.3245 10.4873 19.9667 8.63063C19.6088 6.77398 18.7073 5.06516 17.3762 3.72054C16.0452 2.37592 14.3445 1.45598 12.4895 1.07725C10.6346 0.698511 8.70878 0.877999 6.95605 1.59299C5.20332 2.30798 3.7025 3.52631 2.64361 5.09369C1.58472 6.66107 1.01542 8.507 1.0078 10.3977C1.00514 12.9232 2.00105 15.3476 3.77895 17.1436C5.55685 18.9396 7.97293 19.9621 10.5017 19.9885Z" fill="black"/>
<path d="M11.5166 16.4922V10.9661H13.3723L13.6737 8.82152H11.5405V7.44594C11.5405 6.82025 11.7127 6.39994 12.6071 6.39994H13.7502V4.48943C13.1971 4.43419 12.6416 4.4071 12.0858 4.40824C10.4405 4.40824 9.31171 5.41126 9.31171 7.27401V8.82152H7.45117V10.9708H9.31171V16.497L11.5166 16.4922Z" fill="black"/>
</g>
<defs>
<clipPath id="clip0">
<rect width="20.8723" height="20.8723" fill="white" transform="translate(0.138184 -0.000244141)"/>
</clipPath>
</defs>
</svg>
