<svg width="22" height="21" viewBox="0 0 22 21" fill="none" xmlns="http://www.w3.org/2000/svg">
<path d="M11.2872 18.4039C15.5877 18.4039 19.0739 14.9177 19.0739 10.6173C19.0739 6.31679 15.5877 2.83057 11.2872 2.83057C6.98671 2.83057 3.50049 6.31679 3.50049 10.6173C3.50049 14.9177 6.98671 18.4039 11.2872 18.4039Z" stroke="black" stroke-width="1.29778" stroke-miterlimit="10"/>
<path d="M3.94507 8.02197H18.6315" stroke="black" stroke-width="1.29778" stroke-linecap="round" stroke-linejoin="round"/>
<path d="M3.94507 13.2126H18.6314" stroke="black" stroke-width="1.29778" stroke-linecap="round" stroke-linejoin="round"/>
<path d="M11.2882 18.1949C13.08 18.1949 14.5326 14.8022 14.5326 10.6172C14.5326 6.43219 13.08 3.03955 11.2882 3.03955C9.49629 3.03955 8.0437 6.43219 8.0437 10.6172C8.0437 14.8022 9.49629 18.1949 11.2882 18.1949Z" stroke="black" stroke-width="1.29778" stroke-miterlimit="10"/>
</svg>
