<svg width="125" height="52" viewBox="0 0 125 52" fill="none" xmlns="http://www.w3.org/2000/svg">
<path d="M66.6258 25.8087C66.6258 27.2699 66.8956 28.6299 67.4351 29.8888C67.9971 31.1252 68.7502 32.2042 69.6943 33.1259C70.661 34.0251 71.7737 34.7444 73.0326 35.284C74.314 35.801 75.6628 36.0595 77.079 36.0595C78.5177 36.0595 79.8777 35.801 81.1591 35.284C82.4404 34.7444 83.5644 34.0251 84.5311 33.1259C85.4977 32.2042 86.2508 31.1252 86.7903 29.8888C87.3523 28.6299 87.6333 27.2699 87.6333 25.8087C87.6333 24.3924 87.3523 23.0549 86.7903 21.796C86.2508 20.5371 85.4977 19.4469 84.5311 18.5252C83.5644 17.6035 82.4404 16.8729 81.1591 16.3334C79.8777 15.7939 78.5177 15.5241 77.079 15.5241C75.6628 15.5241 74.314 15.7939 73.0326 16.3334C71.7737 16.8729 70.661 17.6035 69.6943 18.5252C68.7502 19.4469 67.9971 20.5371 67.4351 21.796C66.8956 23.0549 66.6258 24.3924 66.6258 25.8087ZM50.5752 25.9098C50.5752 23.527 50.8899 21.2453 51.5194 19.0647C52.1713 16.8617 53.0817 14.8048 54.2507 12.894C55.4196 10.9607 56.8134 9.20728 58.4319 7.63369C60.073 6.0601 61.8713 4.72254 63.8271 3.62103C65.7828 2.49703 67.8735 1.63156 70.099 1.0246C72.3245 0.395163 74.6287 0.0804443 77.0116 0.0804443C79.3719 0.0804443 81.6649 0.395163 83.8904 1.0246C86.1384 1.63156 88.2403 2.49703 90.196 3.62103C92.1518 4.72254 93.9389 6.0601 95.5575 7.63369C97.1985 9.20728 98.6035 10.9607 99.7724 12.894C100.941 14.8048 101.852 16.8617 102.504 19.0647C103.156 21.2453 103.482 23.527 103.482 25.9098C103.482 28.2927 103.156 30.5857 102.504 32.7887C101.852 34.9692 100.941 37.0149 99.7724 38.9257C98.6035 40.814 97.1985 42.545 95.5575 44.1186C93.9389 45.6697 92.1518 47.0072 90.196 48.1312C88.2403 49.2552 86.1384 50.1207 83.8904 50.7276C81.6649 51.3346 79.3719 51.6381 77.0116 51.6381C74.6287 51.6381 72.3245 51.3346 70.099 50.7276C67.8735 50.1207 65.7828 49.2552 63.8271 48.1312C61.8713 47.0072 60.073 45.6697 58.4319 44.1186C56.8134 42.545 55.4196 40.814 54.2507 38.9257C53.0817 37.0149 52.1713 34.9692 51.5194 32.7887C50.8899 30.5857 50.5752 28.2927 50.5752 25.9098Z" fill="#00C2FD"/>
<path d="M108.713 24.8467C108.713 24.4421 108.837 24.0936 109.084 23.8014C109.331 23.5092 109.702 23.363 110.197 23.363H123.348C123.685 23.363 124.044 23.4979 124.427 23.7677C124.809 24.0374 125 24.3971 125 24.8467V49.4112C125 50.4003 124.449 50.8949 123.348 50.8949H110.197C109.208 50.8949 108.713 50.4003 108.713 49.4112V24.8467Z" fill="#00C2FD"/>
<path d="M0.150114 20.786C0.24352 20.8461 0.366948 20.8761 0.5204 20.8761L14.3811 20.8761C14.4211 20.8761 14.4678 20.8694 14.5212 20.8561C14.5745 20.8361 14.6279 20.806 14.6813 20.766C14.728 20.726 14.768 20.6759 14.8014 20.6159C14.8347 20.5558 14.8514 20.4858 14.8514 20.4057L14.8514 17.8237C14.8514 17.6303 14.7947 17.5002 14.6813 17.4334C14.5679 17.3601 14.4545 17.3234 14.341 17.3234L11.639 17.3234L10.8884 16.5928L14.4611 14.0809L14.4511 14.0809C14.5912 14.0075 14.6946 13.9107 14.7614 13.7906C14.8214 13.6639 14.8514 13.5571 14.8514 13.4704L14.8514 10.2079C14.8514 10.0744 14.8314 9.97771 14.7914 9.91766C14.7447 9.85094 14.6613 9.81758 14.5412 9.81758C14.4878 9.81758 14.4278 9.83426 14.361 9.86762C14.2877 9.89431 14.2176 9.94101 14.1509 10.0077L14.1509 9.98771L9.03695 13.9708L5.69438 10.8083C5.63433 10.7483 5.5843 10.7116 5.54426 10.6983C5.50423 10.6849 5.45753 10.6749 5.40416 10.6682C5.30408 10.6682 5.22402 10.7049 5.16397 10.7783C5.10393 10.8517 5.0739 10.9551 5.0739 11.0886L5.0739 14.221C5.0739 14.4145 5.14729 14.5746 5.29407 14.7013C5.78779 15.1417 6.27816 15.582 6.7652 16.0224C7.24557 16.456 7.73262 16.893 8.22633 17.3334L0.480368 17.3334C0.366948 17.3334 0.260199 17.3767 0.160122 17.4635C0.053373 17.5502 -1.45234e-06 17.6703 -1.44564e-06 17.8237L-1.33496e-06 20.3557C-1.32505e-06 20.5825 0.0500371 20.726 0.150114 20.786Z" fill="#454444"/>
<path fill-rule="evenodd" clip-rule="evenodd" d="M14.281 22.9907C14.4745 22.9907 14.6179 23.0541 14.7113 23.1808C14.8047 23.3009 14.8514 23.4377 14.8514 23.5911L14.8514 25.5426C14.8514 25.6561 14.8381 25.7461 14.8114 25.8129C14.778 25.8729 14.738 25.9263 14.6913 25.973C14.6379 26.013 14.5745 26.0464 14.5012 26.0731C14.4278 26.0997 14.3477 26.1298 14.261 26.1631L13.6805 26.3833C13.8206 26.4767 13.9707 26.5801 14.1309 26.6935C14.2843 26.8003 14.4311 26.9371 14.5712 27.1038C14.7046 27.264 14.8147 27.4608 14.9015 27.6943C14.9882 27.9211 15.0316 28.198 15.0316 28.5249L15.0316 28.635C15.0316 29.3556 14.9048 30.0161 14.6513 30.6166C14.3911 31.2103 14.0375 31.7241 13.5905 32.1577C13.1368 32.5914 12.5997 32.9283 11.9792 33.1685C11.3587 33.4087 10.6882 33.5288 9.96767 33.5288C9.2271 33.5288 8.54658 33.412 7.9261 33.1785C7.30562 32.9383 6.77188 32.6047 6.32487 32.1778C5.87118 31.7441 5.51758 31.227 5.26405 30.6266C5.01052 30.0261 4.88376 29.3623 4.88376 28.635C4.88376 28.2948 4.9338 27.9879 5.03387 27.7143C5.12728 27.4341 5.25404 27.1906 5.41417 26.9838C5.56762 26.7703 5.74442 26.5901 5.94457 26.4433C6.14473 26.2966 6.34822 26.1798 6.55504 26.0931L5.62433 25.7928C5.48422 25.7461 5.37747 25.7094 5.30408 25.6828C5.22402 25.6494 5.16397 25.6127 5.12394 25.5727C5.08391 25.5326 5.06056 25.4826 5.05389 25.4226C5.04054 25.3625 5.03387 25.2791 5.03387 25.1724L5.03387 23.5911C5.03387 23.431 5.08725 23.2909 5.194 23.1708C5.29407 23.0507 5.43084 22.9907 5.60431 22.9907L14.281 22.9907ZM9.99769 29.9761C10.2646 29.9761 10.5114 29.936 10.7383 29.856C10.9651 29.7759 11.1619 29.6625 11.3287 29.5157C11.4955 29.3689 11.6256 29.1921 11.719 28.9853C11.8124 28.7718 11.8591 28.5383 11.8591 28.2848C11.8591 28.0246 11.8124 27.7844 11.719 27.5642C11.6256 27.3374 11.4955 27.1439 11.3287 26.9838C11.1619 26.8236 10.9651 26.7002 10.7383 26.6135C10.5114 26.5201 10.2646 26.4734 9.99769 26.4734C9.73749 26.4734 9.49397 26.5201 9.26713 26.6135C9.04029 26.7002 8.84347 26.8236 8.67668 26.9838C8.50321 27.1439 8.36644 27.3374 8.26636 27.5642C8.16628 27.7844 8.11624 28.0246 8.11624 28.2848C8.11624 28.5383 8.16628 28.7718 8.26636 28.9853C8.36644 29.1921 8.50321 29.3689 8.67668 29.5157C8.84347 29.6625 9.04029 29.7759 9.26713 29.856C9.49397 29.936 9.73749 29.9761 9.99769 29.9761Z" fill="#454444"/>
<path d="M14.8514 50.3957C14.8514 50.5758 14.8047 50.7059 14.7113 50.786C14.6112 50.8594 14.4878 50.8961 14.341 50.8961L5.63434 50.8961C5.54093 50.8961 5.45753 50.8727 5.38414 50.826C5.30408 50.7793 5.2407 50.7259 5.194 50.6659C5.14062 50.5992 5.10059 50.5324 5.0739 50.4657C5.04722 50.3923 5.03387 50.3323 5.03387 50.2856L5.03387 48.9846C5.03387 48.7978 5.07057 48.6377 5.14396 48.5042C5.21735 48.3708 5.31409 48.2574 5.43418 48.164C5.55427 48.0639 5.69438 47.9838 5.8545 47.9238C6.01463 47.8571 6.18142 47.8037 6.35489 47.7636C6.21478 47.6436 6.06133 47.4801 5.89454 47.2733C5.72107 47.0664 5.56428 46.8329 5.42417 46.5727C5.27739 46.3125 5.15397 46.039 5.05389 45.7521C4.95381 45.4585 4.90377 45.1683 4.90377 44.8814C4.90377 44.1342 5.03054 43.4937 5.28407 42.96C5.53759 42.4195 5.86785 42.0359 6.27483 41.8091C6.08135 41.6423 5.90121 41.4455 5.73441 41.2186C5.56762 40.9918 5.42417 40.7482 5.30408 40.4881C5.17732 40.2279 5.08058 39.9643 5.01386 39.6974C4.94047 39.4239 4.90377 39.1637 4.90377 38.9168C4.90377 38.0362 5.03387 37.3256 5.29407 36.7852C5.55427 36.2381 5.91455 35.8145 6.3749 35.5142C6.82859 35.214 7.36567 35.0105 7.98614 34.9038C8.59995 34.797 9.26713 34.7436 9.98768 34.7436L14.341 34.7436C14.5012 34.7436 14.6279 34.7937 14.7213 34.8937C14.8081 34.9938 14.8514 35.1206 14.8514 35.274L14.8514 37.6659C14.8514 38.0262 14.688 38.2063 14.361 38.2063L9.58738 38.2063C9.38055 38.2063 9.1904 38.233 9.01694 38.2864C8.84347 38.3397 8.69336 38.4198 8.56659 38.5265C8.43983 38.6333 8.33975 38.7634 8.26636 38.9168C8.19297 39.0636 8.15628 39.2304 8.15628 39.4172C8.15628 39.5974 8.19297 39.7775 8.26636 39.9576C8.33308 40.1378 8.42648 40.3012 8.54658 40.448C8.66667 40.5948 8.81011 40.7149 8.97691 40.8083C9.1437 40.9017 9.32384 40.9484 9.51732 40.9484L14.361 40.9484C14.5212 40.9617 14.6446 41.0151 14.7313 41.1085C14.8114 41.1953 14.8514 41.3087 14.8514 41.4488L14.8514 44.0208C14.8514 44.3544 14.688 44.5212 14.361 44.5212L9.40724 44.5212C9.04029 44.5412 8.74006 44.6646 8.50654 44.8914C8.27303 45.1183 8.15628 45.4118 8.15628 45.7721C8.15628 45.9456 8.18964 46.1257 8.25635 46.3125C8.32307 46.4927 8.41648 46.6595 8.53657 46.8129C8.65666 46.9597 8.80011 47.0831 8.9669 47.1832C9.1337 47.2766 9.31717 47.3233 9.51732 47.3233L14.4111 47.3233C14.5178 47.3233 14.6179 47.3667 14.7113 47.4534C14.8047 47.5335 14.8514 47.6302 14.8514 47.7436L14.8514 50.3957Z" fill="#454444"/>
<path fill-rule="evenodd" clip-rule="evenodd" d="M14.8314 3.03239C14.6446 2.49864 14.3777 2.01159 14.0308 1.57126C13.9708 1.47785 13.9007 1.40446 13.8206 1.35109C13.7406 1.29104 13.6538 1.26102 13.5604 1.26102C13.4604 1.26102 13.3636 1.29437 13.2702 1.36109L11.8291 2.37188C11.749 2.44526 11.6957 2.50864 11.669 2.56202C11.6356 2.60872 11.6189 2.65876 11.6189 2.71213C11.6189 2.80554 11.6523 2.8856 11.719 2.95232C11.7791 3.01904 11.8425 3.12578 11.9092 3.27256C12.0159 3.44603 12.1093 3.66954 12.1894 3.94309C12.2628 4.20996 12.2995 4.47682 12.2995 4.7437C12.2995 4.90382 12.2728 5.07728 12.2194 5.26409C12.1594 5.44423 12.0726 5.62104 11.9592 5.79451C11.8391 5.9613 11.6957 6.11475 11.5289 6.25486C11.3554 6.38829 11.1553 6.48838 10.9284 6.5551L10.9284 1.60128C10.9284 1.30105 10.9017 1.05419 10.8484 0.860713C10.795 0.66056 10.7149 0.503768 10.6082 0.39035C10.5014 0.276927 10.3646 0.196861 10.1979 0.150161C10.0311 0.103454 9.83424 0.0801158 9.6074 0.0801159C8.94022 0.0801159 8.31641 0.210205 7.73596 0.470409C7.14884 0.73061 6.64178 1.08422 6.21479 1.53123C5.78112 1.97156 5.44086 2.48863 5.194 3.08242C4.94715 3.66954 4.82372 4.29002 4.82372 4.94386C4.82372 5.64439 4.96383 6.29156 5.24404 6.88535C5.52426 7.47914 5.90121 7.9962 6.37491 8.43654C6.84861 8.8702 7.3957 9.21047 8.01618 9.45732C8.63665 9.69751 9.28382 9.8176 9.95767 9.8176C10.6716 9.8176 11.3421 9.68417 11.9692 9.41729C12.5964 9.14375 13.1435 8.7768 13.6105 8.31644C14.0775 7.84942 14.4445 7.309 14.7113 6.6952C14.9782 6.07472 15.1116 5.41421 15.1116 4.71367C15.1116 4.12655 15.0182 3.56613 14.8314 3.03239ZM7.71594 5.4042C7.6559 5.23741 7.62587 5.06394 7.62587 4.8838C7.62587 4.65029 7.65923 4.44346 7.72595 4.26333C7.786 4.08319 7.8694 3.9264 7.97615 3.79296C8.07622 3.65285 8.19298 3.52943 8.32641 3.42268C8.45985 3.31593 8.59662 3.22253 8.73673 3.14247L8.73673 6.49505C8.58995 6.42833 8.44984 6.34159 8.31641 6.23485C8.18297 6.12143 8.06621 5.998 7.96614 5.86456C7.85939 5.72445 7.77599 5.57099 7.71594 5.4042Z" fill="#454444"/>
<path d="M20.3445 35.1141H25.2769L32.4592 49.4113C32.5266 49.816 32.7514 50.1644 33.1336 50.4567C33.5382 50.7489 33.9766 50.895 34.4487 50.895H48.1727C48.5098 50.895 48.8133 50.7601 49.0831 50.4904C49.3753 50.2206 49.4428 49.8609 49.2854 49.4113L39.6753 31.5061C40.8667 30.7867 41.9457 29.9213 42.9124 28.9097C43.879 27.8756 44.7108 26.7516 45.4076 25.5377C46.1045 24.3013 46.6328 22.9862 46.9925 21.5925C47.3746 20.1762 47.5657 18.715 47.5657 17.2089C47.5657 14.9609 47.1498 12.8478 46.3181 10.8696C45.4863 8.86885 44.3398 7.12666 42.8786 5.64298C41.4174 4.15931 39.6865 2.99035 37.6858 2.13612C35.7076 1.2594 33.5607 0.821045 31.2453 0.821045H20.3445V13.5671H28.4128C28.9299 13.5671 29.4132 13.6908 29.8628 13.9381C30.3124 14.1629 30.6945 14.4663 31.0093 14.8485C31.3465 15.2082 31.605 15.6353 31.7848 16.1299C31.9871 16.6019 32.0883 17.074 32.0883 17.5461C32.0883 18.0631 31.9871 18.5577 31.7848 19.0298C31.605 19.5018 31.3465 19.929 31.0093 20.3111C30.6945 20.6708 30.3124 20.963 29.8628 21.1878C29.4132 21.4126 28.9299 21.525 28.4128 21.525H20.3445V35.1141Z" fill="#00C2FD"/>
<circle cx="116.331" cy="8.71076" r="8.63032" fill="#454444"/>
</svg>
