<svg width="22" height="21" viewBox="0 0 22 21" fill="none" xmlns="http://www.w3.org/2000/svg">
<path d="M7.76839 10.3591C8.44148 11.7352 9.55692 12.8455 10.9361 13.5124C11.037 13.5602 11.1486 13.5809 11.2599 13.5725C11.3713 13.564 11.4785 13.5268 11.5711 13.4643L13.6017 12.1102C13.6915 12.0503 13.7949 12.0138 13.9024 12.0039C14.0099 11.994 14.1181 12.0111 14.2173 12.0537L18.0164 13.6818C18.1454 13.7366 18.2531 13.8319 18.3233 13.9533C18.3935 14.0747 18.4224 14.2156 18.4056 14.3548C18.2855 15.2944 17.827 16.158 17.1161 16.7839C16.4051 17.4098 15.4903 17.7552 14.5431 17.7552C11.6175 17.7552 8.81165 16.593 6.74291 14.5243C4.67417 12.4555 3.51196 9.6497 3.51196 6.72406C3.51201 5.77682 3.85733 4.86208 4.48326 4.15111C5.10918 3.44014 5.9728 2.9817 6.91239 2.86162C7.05159 2.84477 7.1925 2.87362 7.31387 2.94382C7.43525 3.01402 7.53053 3.12176 7.58535 3.25081L9.21492 7.05314C9.25707 7.15149 9.27424 7.25874 9.26491 7.36533C9.25558 7.47192 9.22004 7.57456 9.16144 7.66409L7.81204 9.72592C7.75062 9.81867 7.71432 9.92577 7.70667 10.0367C7.69901 10.1477 7.72028 10.2588 7.76839 10.3591V10.3591Z" stroke="black" stroke-width="1.29778" stroke-linecap="round" stroke-linejoin="round"/>
</svg>
