<svg width="24" height="21" viewBox="0 0 24 21" fill="none" xmlns="http://www.w3.org/2000/svg">
<g clip-path="url(#clip0)">
<path d="M12.038 20.8713C5.88393 20.8892 1.00619 16.31 0.989302 10.4994C0.97241 4.68865 5.84407 0.0283321 11.9428 -0.00108267C18.009 -0.0304974 22.9847 4.64517 23.0239 10.4098C23.0631 16.1745 18.1516 20.8534 12.038 20.8713ZM1.90688 10.3708C1.89315 11.6249 2.14094 12.8693 2.63606 14.0327C3.13118 15.196 3.86391 16.2555 4.79229 17.1505C5.72068 18.0455 6.82648 18.7584 8.04639 19.2484C9.2663 19.7384 10.5763 19.9959 11.9015 20.0061C17.4475 20.054 22.0293 15.803 22.1077 10.5371C22.1847 5.35432 17.6002 0.935714 12.0779 0.86985C6.57313 0.803987 1.95958 5.11453 1.90688 10.3708Z" fill="black"/>
<path d="M16.0964 6.14127L5.63006 9.8923C5.05776 10.0483 5.076 10.5835 5.49965 10.7121L8.12332 11.4865L9.12604 14.3972C9.24833 14.717 9.34833 14.8359 9.55644 14.8385C9.77536 14.8385 9.85915 14.7662 10.0862 14.5756C10.3524 14.339 10.7578 13.9669 11.3983 13.3773L14.1261 15.2848C14.6281 15.5463 14.9903 15.4127 15.1153 14.8436L16.8254 6.83828C17.0072 6.14255 16.5761 5.93537 16.0964 6.14127ZM8.53414 11.308L14.4957 7.76868C14.7889 7.58196 14.8815 7.78978 14.7484 7.93366L9.80104 12.1457L9.54698 14.2482L8.53414 11.308Z" fill="black"/>
</g>
<defs>
<clipPath id="clip0">
<rect width="22.0319" height="20.8723" fill="white" transform="translate(0.989502 -0.000244141)"/>
</clipPath>
</defs>
</svg>
