<svg width="21" height="21" viewBox="0 0 21 21" fill="none" xmlns="http://www.w3.org/2000/svg">
<g clip-path="url(#clip0)">
<path d="M10.3441 20.8722C4.54753 20.8385 -0.02839 16.1897 0.00037905 10.3695C0.0291481 4.61908 4.76781 -0.0518915 10.5216 0.000683659C16.2754 0.0532588 20.8965 4.75463 20.8727 10.5445C20.8489 16.3072 16.1603 20.9067 10.3441 20.8722ZM10.4559 20.0261C15.737 20.0039 20.0179 15.7026 20.0113 10.4319C20.0039 5.19248 15.64 0.841885 10.4082 0.856672C5.17633 0.871458 0.847833 5.22452 0.85934 10.4812C0.87167 15.7543 5.18866 20.0483 10.4559 20.0261Z" fill="black"/>
<path fill-rule="evenodd" clip-rule="evenodd" d="M10.5315 5.01733C9.61042 5.01774 8.70592 5.26257 7.91049 5.72679C7.11505 6.19102 6.45722 6.85799 6.00421 7.65954C5.55119 8.4611 5.31926 9.36849 5.33209 10.289C5.34493 11.2095 5.60208 12.1101 6.07727 12.8987L5.1394 15.6876L8.01631 14.7659C8.71103 15.1495 9.48437 15.3691 10.2771 15.4079C11.0698 15.4466 11.8609 15.3036 12.5898 14.9897C13.3187 14.6758 13.9661 14.1994 14.4823 13.5969C14.9986 12.9944 15.37 12.2818 15.5682 11.5137C15.7663 10.7456 15.786 9.94236 15.6257 9.1655C15.4653 8.38864 15.1292 7.65876 14.6431 7.03174C14.157 6.40472 13.5337 5.8972 12.821 5.54804C12.1084 5.19888 11.3252 5.01734 10.5315 5.01733ZM10.5315 14.5417C9.6838 14.5429 8.85456 14.294 8.14782 13.8261L6.48415 14.3585L7.02501 12.7516C6.4554 11.9647 6.16738 11.0091 6.20733 10.0387C6.24728 9.06832 6.61287 8.1396 7.24523 7.40212C7.87759 6.66464 8.73991 6.16134 9.69331 5.97327C10.6467 5.78519 11.6357 5.92329 12.501 6.36533C13.3663 6.80737 14.0576 7.52761 14.4635 8.41006C14.8694 9.29252 14.9663 10.2858 14.7385 11.23C14.5108 12.1742 13.9718 13.0143 13.2082 13.615C12.4446 14.2158 11.5009 14.5422 10.5291 14.5417H10.5315ZM12.9703 11.3962C12.8396 11.3247 12.1993 10.9789 12.0793 10.9304C11.9593 10.8819 11.8722 10.8565 11.7785 10.9854C11.6848 11.1144 11.4193 11.4044 11.3387 11.4898C11.2582 11.5753 11.1801 11.5835 11.0494 11.512C10.6637 11.3416 10.3108 11.1053 10.0063 10.8137C9.7262 10.5348 9.48908 10.2159 9.30269 9.86739C9.23036 9.73185 9.30269 9.66284 9.37092 9.59877C9.43914 9.53469 9.50983 9.44926 9.57888 9.37368C9.63611 9.30879 9.68372 9.23604 9.72025 9.15763C9.73939 9.12187 9.74941 9.08194 9.74941 9.04139C9.74941 9.00083 9.73939 8.9609 9.72025 8.92515C9.68902 8.85778 9.44818 8.19484 9.3479 7.92457C9.24762 7.65431 9.13501 7.69538 9.05692 7.6921C8.97883 7.68881 8.89253 7.67484 8.80294 7.67156C8.73567 7.67114 8.66903 7.68448 8.60711 7.71076C8.5452 7.73704 8.48932 7.77569 8.44291 7.82435C8.28747 7.96084 8.16217 8.12819 8.075 8.31573C7.98783 8.50327 7.94068 8.7069 7.93657 8.91365C7.91274 9.56591 8.36482 10.2149 8.42976 10.3061C8.49469 10.3972 9.29283 11.8119 10.6228 12.3935C11.9527 12.9751 11.9552 12.7985 12.2018 12.7853C12.4484 12.7722 12.9991 12.4937 13.1216 12.1881C13.2441 11.8825 13.2531 11.6172 13.2219 11.5605C13.1906 11.5038 13.101 11.4668 12.9703 11.3962Z" fill="black"/>
</g>
<defs>
<clipPath id="clip0">
<rect width="20.8723" height="20.8723" fill="white" transform="translate(0 -0.000244141)"/>
</clipPath>
</defs>
</svg>
