<?xml version="1.0" encoding="utf-8"?>
<!-- Generator: Adobe Illustrator 18.0.0, SVG Export Plug-In . SVG Version: 6.00 Build 0)  -->
<!DOCTYPE svg PUBLIC "-//W3C//DTD SVG 1.1//EN" "http://www.w3.org/Graphics/SVG/1.1/DTD/svg11.dtd">
<svg version="1.1" xmlns="http://www.w3.org/2000/svg" xmlns:xlink="http://www.w3.org/1999/xlink" x="0px" y="0px"
	 viewBox="0 0 21 21" enable-background="new 0 0 21 21" xml:space="preserve">
<g id="Слой_1">
	<path display="none" fill="none" stroke="#000000" stroke-width="0.8117" stroke-miterlimit="10" d="M10.6,0.4L10.6,0.4
		c-1.3,0-2.6,0.3-3.8,0.8C5.5,1.7,4.4,2.4,3.5,3.3s-1.7,2-2.2,3.3c-0.5,1.2-0.8,2.5-0.8,3.8v0L10.6,0.4z"/>
	<path display="none" fill="none" stroke="#000000" stroke-width="0.8117" stroke-miterlimit="10" d="M10.6,0.4
		c1.3,0,2.6,0.3,3.8,0.8c1.2,0.5,2.3,1.2,3.3,2.2c0.9,0.9,1.7,2,2.2,3.3c0.5,1.2,0.8,2.5,0.8,3.8v0c0,0,0,0,0,0
		c0,2.7-1.1,5.2-2.9,7.1c-1.9,1.9-4.4,2.9-7.1,2.9l0,0"/>
	
		<line display="none" fill="none" stroke="#000000" stroke-width="0.8117" stroke-miterlimit="10" x1="10.6" y1="0.4" x2="10.6" y2="20.5"/>
	<path display="none" fill="none" stroke="#000000" stroke-width="0.8117" stroke-miterlimit="10" d="M10.6,20.5L10.6,20.5
		L10.6,20.5z"/>
	<path display="none" fill="none" stroke="#000000" stroke-width="0.8117" stroke-miterlimit="10" d="M3.5,17.5
		c-1.9-1.9-2.9-4.4-2.9-7.1l10,10C7.9,20.5,5.4,19.4,3.5,17.5z"/>
	<path d="M14,12.3c-0.2,0-0.3,0.1-0.3,0.4V13h0.6v-0.3C14.3,12.4,14.2,12.3,14,12.3z"/>
	<path d="M15.4,10.7c-0.1-0.2-0.2-0.5-0.4-0.6c-0.2-0.2-0.4-0.3-0.7-0.3c-1.2-0.1-2.4-0.1-3.6-0.1c-1.2,0-2.4,0-3.6,0.1
		c-0.3,0-0.5,0.1-0.7,0.3c-0.2,0.2-0.3,0.4-0.4,0.6c-0.2,0.7-0.2,1.5-0.2,2.3c0,0.8,0,1.5,0.2,2.3c0.1,0.2,0.2,0.5,0.4,0.6
		c0.2,0.2,0.4,0.3,0.7,0.3c1.2,0.1,2.4,0.1,3.6,0.1c1.2,0,2.4,0,3.6-0.1c0.3,0,0.5-0.1,0.7-0.3c0.2-0.2,0.3-0.4,0.4-0.6
		c0.2-0.7,0.2-1.5,0.2-2.3C15.6,12.2,15.6,11.4,15.4,10.7z M8.7,11.3H8V15H7.3v-3.7H6.6v-0.6h2V11.3z M10.4,15H9.9v-0.4
		c-0.2,0.3-0.5,0.4-0.7,0.4c-0.2,0-0.3-0.1-0.4-0.2c0-0.2-0.1-0.3-0.1-0.5v-2.5h0.6v2.4c0,0.1,0,0.2,0,0.2c0,0.1,0.1,0.1,0.1,0.1
		c0.1,0,0.2-0.1,0.4-0.3v-2.5h0.6L10.4,15z M12.6,14.1c0,0.2,0,0.4-0.1,0.6c-0.1,0.2-0.2,0.4-0.5,0.4c-0.2,0-0.4-0.1-0.6-0.4V15
		h-0.6v-4.3h0.6v1.4c0.2-0.2,0.4-0.3,0.6-0.3c0.2,0,0.4,0.1,0.5,0.4c0,0.2,0.1,0.4,0.1,0.6V14.1z M14.9,13.5h-1.2v0.6
		c0,0.3,0.1,0.4,0.3,0.4c0.1,0,0.2-0.1,0.3-0.2c0-0.1,0-0.3,0-0.4h0.6V14c0,0.2,0,0.3,0,0.4c0,0.1-0.1,0.2-0.1,0.3
		c-0.1,0.1-0.2,0.2-0.3,0.3c-0.1,0.1-0.3,0.1-0.4,0.1c-0.1,0-0.3,0-0.4-0.1c-0.1-0.1-0.2-0.1-0.3-0.3c-0.1-0.2-0.2-0.4-0.2-0.8v-1.1
		c0-0.3,0.1-0.6,0.2-0.8c0.1-0.1,0.2-0.2,0.3-0.3c0.1-0.1,0.3-0.1,0.4-0.1c0.1,0,0.3,0,0.4,0.1c0.1,0.1,0.2,0.1,0.3,0.3
		c0.1,0.2,0.2,0.4,0.2,0.8L14.9,13.5z"/>
	<path d="M11.8,12.3c-0.1,0-0.1,0-0.2,0c0,0-0.1,0.1-0.1,0.1v2c0,0,0.1,0.1,0.1,0.1c0,0,0.1,0,0.2,0c0.2,0,0.3-0.1,0.3-0.4v-1.4
		C12.1,12.4,12,12.3,11.8,12.3z"/>
	<path d="M9.7,4.6H9.1L8.6,6.3L8.2,4.6H7.5C7.6,5,7.8,5.4,7.9,5.9c0.2,0.5,0.3,0.9,0.4,1.4V9H9V7.2L9.7,4.6z M11.5,7.9V6.8
		c0-0.3-0.1-0.6-0.2-0.8c-0.1-0.1-0.2-0.2-0.3-0.2c-0.1-0.1-0.2-0.1-0.4-0.1c-0.1,0-0.3,0-0.4,0.1C10.1,5.9,10,5.9,9.9,6
		C9.8,6.2,9.7,6.5,9.7,6.8v1.1c0,0.3,0.1,0.6,0.2,0.8C10,8.8,10.1,8.9,10.2,9C10.4,9,10.5,9,10.6,9C10.7,9,10.9,9,11,9
		c0.1-0.1,0.2-0.1,0.3-0.2C11.4,8.5,11.5,8.3,11.5,7.9z M10.9,8.1c0,0.3-0.1,0.5-0.3,0.5c-0.2,0-0.3-0.2-0.3-0.5V6.7
		c0-0.3,0.1-0.5,0.3-0.5s0.3,0.1,0.3,0.5V8.1z M13.7,9V5.7h-0.6v2.5c-0.1,0.2-0.3,0.3-0.4,0.3c-0.1,0-0.1,0-0.1-0.1
		c0-0.1,0-0.2,0-0.2V5.7H12v2.6c0,0.2,0,0.3,0.1,0.5C12.1,9,12.2,9,12.4,9c0.2,0,0.4-0.1,0.7-0.4V9L13.7,9z"/>
</g>
<g id="Слой_2">
	<circle fill="none" stroke="#000000" stroke-width="0.8117" stroke-miterlimit="10" cx="10.6" cy="10.4" r="10"/>
</g>
</svg>
